<svg width="3829" height="2069" viewBox="0 0 3829 2069" fill="none" xmlns="http://www.w3.org/2000/svg">
<path d="M2792.5 1026C3237.15 794.8 3772.44 257.333 3829 0V2069H0C366.199 1952.5 989.653 1763.25 1443.5 1522.5C2018.46 1217.5 2236.69 1315 2792.5 1026Z" fill="#CFB1FF"/>
<path d="M3103.5 1061C3548.15 829.8 3772.44 257.333 3829 0V2069H0C366.199 1952.5 1206.31 1915.75 1660.15 1675C2235.12 1370 2547.69 1350 3103.5 1061Z" fill="#E5D6FF"/>
<path d="M2579.51 1199.3L2542.77 1121.45" stroke="#CCE3FF" stroke-width="12"/>
<path d="M2620.29 1077.12L2542.77 1121.45" stroke="#CCE3FF" stroke-width="12"/>
<path d="M2619.39 1078.08H2651.01" stroke="#CCE3FF" stroke-width="12"/>
<path fill-rule="evenodd" clip-rule="evenodd" d="M2555.87 1206.38H2624.81C2624.81 1200.11 2619.73 1195.03 2613.46 1195.03H2567.22C2560.95 1195.03 2555.87 1200.11 2555.87 1206.38" fill="#DCEEFF"/>
<path fill-rule="evenodd" clip-rule="evenodd" d="M2680.06 1104.04C2680.06 1088 2667.05 1075 2651.01 1075C2634.96 1075 2621.96 1088 2621.96 1104.04" fill="#DCEEFF"/>
<path fill-rule="evenodd" clip-rule="evenodd" d="M2475.94 1492.08H2482.46L2522.47 1225.59H2499.95L2475.94 1492.08Z" fill="#B6D4FF"/>
<path fill-rule="evenodd" clip-rule="evenodd" d="M2589.93 1492.08H2596.44L2636.45 1225.59H2613.94L2589.93 1492.08Z" fill="#B6D4FF"/>
<path fill-rule="evenodd" clip-rule="evenodd" d="M2749.65 1124.8H2846.99L2824.15 1200.07H2726.81L2749.65 1124.8Z" fill="#DCEEFF"/>
<path fill-rule="evenodd" clip-rule="evenodd" d="M2840.13 1129.64L2820.64 1193.91H2733.53L2753.03 1129.64H2840.13Z" fill="white"/>
<path fill-rule="evenodd" clip-rule="evenodd" d="M2824.24 1149.42L2823.31 1152.49H2751.81L2752.73 1149.42H2824.24Z" fill="#B6D4FF"/>
<path fill-rule="evenodd" clip-rule="evenodd" d="M2819.67 1155.68L2818.74 1158.75H2749.58L2750.51 1155.68H2819.67Z" fill="#B6D4FF"/>
<path fill-rule="evenodd" clip-rule="evenodd" d="M2798.01 1161.94L2797.08 1165.02H2747.42L2748.35 1161.94H2798.01Z" fill="#B6D4FF"/>
<path fill-rule="evenodd" clip-rule="evenodd" d="M2655.63 1206.26H2752.97V1200.07H2655.63V1206.26Z" fill="#DCEEFF"/>
<path fill-rule="evenodd" clip-rule="evenodd" d="M2752.97 1206.26H2824.11V1200.07H2752.97V1206.26Z" fill="#ECF6FF"/>
<path fill-rule="evenodd" clip-rule="evenodd" d="M2846.91 1124.8H2852.89L2830.05 1200.07H2824.07L2846.91 1124.8Z" fill="#ECF6FF"/>
<path fill-rule="evenodd" clip-rule="evenodd" d="M2449.63 1225.59H2817.33V1206.26H2449.63V1225.59Z" fill="#B6D4FF"/>
<path fill-rule="evenodd" clip-rule="evenodd" d="M2790.74 1225.59H2934.19V1206.26H2790.74V1225.59Z" fill="#DCEEFF"/>
<path fill-rule="evenodd" clip-rule="evenodd" d="M2915.99 1492.08H2922.5L2898.49 1225.59H2875.97L2915.99 1492.08Z" fill="#DCEEFF"/>
<path fill-rule="evenodd" clip-rule="evenodd" d="M2801.56 1492.08H2808.07L2784.06 1225.59H2761.55L2801.56 1492.08Z" fill="#DCEEFF"/>
<path fill-rule="evenodd" clip-rule="evenodd" d="M2827.81 1137.28L2826.88 1140.35H2755.38L2756.3 1137.28H2827.81Z" fill="#B6D4FF"/>
<path fill-rule="evenodd" clip-rule="evenodd" d="M2818.29 1143.54L2817.36 1146.61H2753.66L2754.59 1143.54H2818.29Z" fill="#B6D4FF"/>
<path fill-rule="evenodd" clip-rule="evenodd" d="M2803.41 1128.83L2791.25 1130.3L2790.27 1128.78L2790.91 1127.38L2789.99 1126.27L2801.35 1124.8L2803.07 1125.82L2801.63 1127.26L2803.41 1128.83Z" fill="#B6D4FF"/>
<path fill-rule="evenodd" clip-rule="evenodd" d="M2551.4 1303.75V1305.08C2551.4 1316.16 2542.8 1325.14 2532.21 1325.14H2381.84C2358.65 1325.14 2340.8 1302.89 2344 1277.96L2360.98 1139.06C2362.45 1127.56 2371.5 1119 2382.21 1119H2426.77C2437.47 1119 2446.53 1127.56 2448.01 1139.06L2464.98 1277.96C2465.11 1278.95 2465.21 1279.94 2465.26 1280.93L2465.35 1280.91C2465.35 1280.91 2468.49 1303.75 2497.68 1303.75H2551.4Z" fill="#DCEEFF"/>
<path fill-rule="evenodd" clip-rule="evenodd" d="M2391.33 1481.59C2391.33 1488.68 2385.58 1494.42 2378.5 1494.42C2371.41 1494.42 2365.66 1488.68 2365.66 1481.59C2365.66 1474.51 2371.41 1468.77 2378.5 1468.77C2385.58 1468.77 2391.33 1474.51 2391.33 1481.59" fill="#B6D4FF"/>
<path fill-rule="evenodd" clip-rule="evenodd" d="M2508.41 1484.17H2381.61C2376.75 1484.17 2372.78 1480.19 2372.78 1475.34C2372.78 1470.48 2376.75 1466.51 2381.61 1466.51H2508.41C2513.27 1466.51 2517.24 1470.48 2517.24 1475.34C2517.24 1480.19 2513.27 1484.17 2508.41 1484.17" fill="#CCE3FF"/>
<path fill-rule="evenodd" clip-rule="evenodd" d="M2438.5 1479.97H2451.52V1324.6H2438.5V1479.97Z" fill="#CCE3FF"/>
<path fill-rule="evenodd" clip-rule="evenodd" d="M2489.6 1324.6L2445.01 1344.9L2400.42 1324.6H2489.6Z" fill="#CCE3FF"/>
<path fill-rule="evenodd" clip-rule="evenodd" d="M2446 1484.17H2429.54C2424.69 1484.17 2420.71 1480.19 2420.71 1475.34C2420.71 1470.48 2424.69 1466.51 2429.54 1466.51H2446C2450.85 1466.51 2454.83 1470.48 2454.83 1475.34C2454.83 1480.19 2450.85 1484.17 2446 1484.17" fill="#B6D4FF"/>
<path fill-rule="evenodd" clip-rule="evenodd" d="M2435.2 1481.59C2435.2 1488.68 2429.46 1494.42 2422.37 1494.42C2415.28 1494.42 2409.54 1488.68 2409.54 1481.59C2409.54 1474.51 2415.28 1468.77 2422.37 1468.77C2429.46 1468.77 2435.2 1474.51 2435.2 1481.59" fill="#B6D4FF"/>
<path fill-rule="evenodd" clip-rule="evenodd" d="M2525.21 1481.59C2525.21 1488.68 2519.46 1494.42 2512.37 1494.42C2505.29 1494.42 2499.54 1488.68 2499.54 1481.59C2499.54 1474.51 2505.29 1468.77 2512.37 1468.77C2519.46 1468.77 2525.21 1474.51 2525.21 1481.59" fill="#B6D4FF"/>
<path fill-rule="evenodd" clip-rule="evenodd" d="M2609.59 697.221H2270.96V683H2609.59V697.221Z" fill="#DCEEFF"/>
<path fill-rule="evenodd" clip-rule="evenodd" d="M2270.96 697.221H2215.25V683H2270.96V697.221Z" fill="#CCE3FF"/>
<path fill-rule="evenodd" clip-rule="evenodd" d="M2527.05 697.221L2500.61 738.698V697.221H2527.05Z" fill="#B6D4FF"/>
<path fill-rule="evenodd" clip-rule="evenodd" d="M2541.69 697.221L2515.25 738.698H2500.61L2527.05 697.221H2541.69Z" fill="#CCE3FF"/>
<path fill-rule="evenodd" clip-rule="evenodd" d="M2333.1 697.221L2306.66 738.698V697.221H2333.1Z" fill="#B6D4FF"/>
<path fill-rule="evenodd" clip-rule="evenodd" d="M2347.74 697.221L2321.29 738.698H2306.66L2333.1 697.221H2347.74Z" fill="#CCE3FF"/>
<path fill-rule="evenodd" clip-rule="evenodd" d="M2646.36 696.248H2771.62V591H2646.36V696.248Z" fill="#DCEEFF"/>
<path fill-rule="evenodd" clip-rule="evenodd" d="M2646.36 696.248H2771.62V591H2646.36V696.248Z" stroke="#DCEEFF" stroke-width="5"/>
<path fill-rule="evenodd" clip-rule="evenodd" d="M2639 696.39H2764.25V591.142H2639V696.39Z" fill="white"/>
<path fill-rule="evenodd" clip-rule="evenodd" d="M2639 696.39H2764.25V591.142H2639V696.39Z" stroke="#DCEEFF" stroke-width="5"/>
<path fill-rule="evenodd" clip-rule="evenodd" d="M2660.33 674.646H2741.14V612.603H2660.33V674.646Z" fill="#DCEEFF"/>
<path fill-rule="evenodd" clip-rule="evenodd" d="M2688.27 799.73H2764.38V711H2688.27V799.73Z" fill="#DCEEFF"/>
<path fill-rule="evenodd" clip-rule="evenodd" d="M2688.27 799.73H2764.38V711H2688.27V799.73Z" stroke="#DCEEFF" stroke-width="5"/>
<path fill-rule="evenodd" clip-rule="evenodd" d="M2683 799.73H2760.54V711H2683V799.73Z" fill="white"/>
<path fill-rule="evenodd" clip-rule="evenodd" d="M2683 799.73H2760.54V711H2683V799.73Z" stroke="#DCEEFF" stroke-width="5"/>
<path fill-rule="evenodd" clip-rule="evenodd" d="M2701.35 776.641H2738.61V733.927H2701.35V776.641Z" fill="#CCE3FF"/>
<path fill-rule="evenodd" clip-rule="evenodd" d="M2805.32 718.452H2945.74V557H2805.32V718.452Z" fill="#DCEEFF"/>
<path fill-rule="evenodd" clip-rule="evenodd" d="M2805.32 718.452H2945.74V557H2805.32V718.452Z" stroke="#DCEEFF" stroke-width="9"/>
<path fill-rule="evenodd" clip-rule="evenodd" d="M2800 718.452H2940.41V557H2800V718.452Z" fill="white"/>
<path fill-rule="evenodd" clip-rule="evenodd" d="M2800 718.452H2940.41V557H2800V718.452Z" stroke="#DCEEFF" stroke-width="9"/>
<path fill-rule="evenodd" clip-rule="evenodd" d="M2829.62 684.628H2908.79V590.824H2829.62V684.628Z" fill="#CCE3FF"/>
<rect x="2939.15" y="554" width="520" height="991" rx="70" fill="white"/>
<mask id="mask0" mask-type="alpha" maskUnits="userSpaceOnUse" x="2949" y="564" width="501" height="971">
<rect x="2956.15" y="571" width="486" height="957" rx="53" fill="#EDF4FE" stroke="black" stroke-width="14"/>
</mask>
<g mask="url(#mask0)">
<path fill-rule="evenodd" clip-rule="evenodd" d="M2980 809.076C2980 823.412 2989.2 835.033 3000.55 835.033C3011.91 835.033 3021.11 823.412 3021.11 809.076C3021.11 794.74 3011.91 783.118 3000.55 783.118C2989.2 783.118 2980 794.74 2980 809.076" fill="#19141E"/>
<path d="M3028.64 911.905L3029.51 882.092C3029.51 882.092 2993.41 884.977 2985.69 880.951C2985.69 880.951 2976.25 832.149 2987.51 805.124L2987.74 804.072L3063.9 795.129L3068.17 839C3070.74 831.404 3091.92 822.79 3097.45 833.668C3109.45 857.238 3066.56 873.109 3066.56 873.109L3070.91 912.263" fill="#E576C6"/>
<path opacity="0.398926" fill-rule="evenodd" clip-rule="evenodd" d="M3029.5 882.092L3053.84 876.854L3029.62 893.277L3029.5 882.092Z" fill="black"/>
<path fill-rule="evenodd" clip-rule="evenodd" d="M3010.05 838.442L3001.64 859.081L3011.72 859.21L3010.05 838.442Z" fill="#405FD3"/>
<path fill-rule="evenodd" clip-rule="evenodd" d="M3019.02 839.237C3018.52 842.016 3020.36 844.677 3023.12 845.179C3025.89 845.682 3028.54 843.836 3029.04 841.057C3029.55 838.278 3027.71 835.618 3024.94 835.115C3022.17 834.612 3019.52 836.458 3019.02 839.237" fill="#0D0B6D"/>
<path fill-rule="evenodd" clip-rule="evenodd" d="M2990.76 839.237C2990.25 842.016 2992.09 844.677 2994.86 845.179C2997.63 845.682 3000.28 843.836 3000.78 841.057C3001.28 838.278 2999.44 835.618 2996.68 835.115C2993.91 834.612 2991.26 836.458 2990.76 839.237" fill="#0D0B6D"/>
<path d="M3062.52 846.488C3069.74 834.082 3080.19 830.298 3084.88 829.189C3086.75 823.762 3088.18 817.468 3089.18 810.775C3091.87 792.86 3078.89 776.516 3068.41 771.823C3057.8 767.073 3039.5 760.491 3012.72 769.426C2994.72 775.436 2983.21 761.046 2972.62 767.192C2954.51 777.697 2971.35 823.69 3017.25 812.006C3050.09 803.648 3050.93 805.745 3051.22 811.82C3052.13 831.457 3055.18 843.01 3062.52 846.488V846.488Z" fill="#2F2F3D"/>
<path fill-rule="evenodd" clip-rule="evenodd" d="M3024.05 859.977C3024.05 859.977 3020.81 865.878 3013.82 865.739Z" fill="white"/>
<path d="M3024.05 859.977C3024.05 859.977 3020.81 865.878 3013.82 865.739" stroke="#252535" stroke-width="4"/>
<path fill-rule="evenodd" clip-rule="evenodd" d="M3012.49 839.484C3012.49 845.945 3017.71 851.182 3024.15 851.182C3030.59 851.182 3035.8 845.945 3035.8 839.484C3035.8 833.023 3030.59 827.785 3024.15 827.785C3017.71 827.785 3012.49 833.023 3012.49 839.484Z" stroke="#252535" stroke-width="4"/>
<path fill-rule="evenodd" clip-rule="evenodd" d="M2983.14 839.484C2983.14 845.945 2988.36 851.182 2994.8 851.182C3001.23 851.182 3006.45 845.945 3006.45 839.484C3006.45 833.023 3001.23 827.785 2994.8 827.785C2988.36 827.785 2983.14 833.023 2983.14 839.484Z" stroke="#252535" stroke-width="4"/>
<path d="M3007.4 840.026H3012.44" stroke="#252535" stroke-width="4"/>
<path d="M3035.8 839.484H3064.6" stroke="#252535" stroke-width="4"/>
<path d="M2993.88 1549.5L2994.6 1572.19H3036.1L3035.37 1549.43C3040.02 1547.56 3043.34 1543.07 3043.45 1537.76L3050.13 1197.87L3122.3 1541.02C3123.32 1545.84 3126.89 1549.59 3131.43 1550.97L3134.14 1572.19H3177.65L3173.9 1548.77C3177.52 1545.95 3179.62 1541.32 3178.9 1536.38L3112.46 1081.58L3052.42 1081.58L3052.42 1081.4H2979.7L2984.06 1537.12C2984.12 1543.12 2988.28 1548.13 2993.88 1549.5V1549.5Z" fill="#2F2F3D"/>
<path opacity="0.197824" fill-rule="evenodd" clip-rule="evenodd" d="M3050.5 1203.25L3037.77 1146.68L3047.35 1318.19L3050.5 1203.25Z" fill="black"/>
<path d="M3096.92 1082.01L3089.96 1083.14L3165.95 1546.62L3172.94 1545.45L3096.92 1082.01Z" fill="#EFEFEF"/>
<path fill-rule="evenodd" clip-rule="evenodd" d="M2879.81 925.682L2880.31 917.053C2880.31 917.053 2880.3 911.048 2879.52 904.566C2879.33 902.94 2878.9 901.24 2878.44 899.423C2877.07 894.001 2875.44 887.549 2879 878.977C2883.75 867.545 2872.39 875.438 2869.87 880.876C2868.9 882.978 2868.62 886.155 2868.34 889.306V889.306C2868.01 892.951 2867.69 896.561 2866.31 898.432C2864.13 897.249 2862.69 895.709 2862.69 895.709L2838.19 864.075C2837.4 863.011 2835.94 862.693 2834.78 863.32L2833.46 864.035C2832.07 864.791 2831.63 866.561 2832.52 867.853C2834.22 870.336 2837.19 874.525 2840.29 878.903L2840.29 878.903C2845.91 886.847 2851.98 895.415 2851.72 895.55L2851.07 896.335L2822.3 866.133C2821.41 865.129 2819.9 864.95 2818.79 865.716L2817.06 866.908C2815.8 867.773 2815.53 869.503 2816.47 870.696C2819.54 874.64 2827.13 883.182 2833.46 890.294L2833.46 890.295C2838.93 896.447 2843.44 901.528 2843.25 901.634L2842.4 902.459L2815.61 878.908C2814.67 877.854 2813.05 877.735 2811.95 878.619L2810.64 879.683C2809.49 880.608 2809.32 882.288 2810.26 883.421L2835.56 907.101L2834.83 908.245L2812.87 892.885C2811.86 891.991 2810.34 891.991 2809.32 892.875L2808.71 893.422C2807.64 894.376 2807.52 896.017 2808.46 897.12C2809.95 898.881 2812.91 901.194 2816.43 903.952L2816.43 903.952C2820.49 907.126 2825.3 910.888 2829.5 915.074C2831.82 917.381 2833.68 919.641 2835.57 921.932C2838.66 925.673 2841.81 929.494 2847.09 933.724C2850.24 936.259 2853.09 937.733 2855.8 939.135C2856.18 939.334 2856.57 939.531 2856.94 939.729L2879.81 925.682ZM3077.23 905.884C3077.23 905.884 3060.31 905.851 3048.09 905.81C3035.88 905.768 3020.52 910.909 3020.52 910.909C3020.52 910.909 3012.53 928.879 3040.29 927.251C3068.05 925.622 3077.23 905.884 3077.23 905.884ZM3169.79 978.602C3169.79 978.602 3196.87 1019.3 3196.26 1041.94C3195.54 1068.63 3110.32 1134.2 3110.32 1134.2L3088.23 1116.2L3141.88 1041.33L3122.37 999.727L3169.79 978.602Z" fill="#E576C6"/>
<path d="M3094.65 1083.56L3081.45 1101.28L3121.19 1135.95C3121.19 1135.95 3194.11 1082.45 3196.36 1040.51C3197.8 1013.8 3174.45 975.664 3174.45 975.664C3174.45 975.664 3145.14 928.779 3111.26 912.957C3104.3 909.709 3087.45 907.001 3077.23 905.883C3074.1 905.541 3075.97 906.762 3074.89 908.83C3073.77 910.99 3070.35 914.19 3067.98 916.583C3063.06 921.562 3053.36 925.332 3048.14 926.104C3044.17 926.692 3036.5 927.604 3032.8 927.108C3029.11 926.611 3025.09 924.943 3024.02 923.951C3022.95 922.96 3021.35 921.72 3020.52 919.809C3019.7 917.899 3019.74 918.446 3019.74 916.683C3019.74 914.921 3019.83 915.181 3020 914.343C3020.17 913.504 3020.17 913 3020.28 912.566C3020.72 910.648 3020.52 910.909 3020.52 910.909C3000.52 916.955 2990.39 919.192 2983.11 927.988L2927.43 967.099L2889.33 917.342L2840.17 950.377C2840.17 950.377 2883.69 1031.54 2915.24 1040.51C2940.65 1047.74 2966.39 1025.26 2975.44 1016.24L2964.69 1070.88C2962.96 1080.32 2971.22 1083.89 2978.57 1083.55L3094.65 1083.56Z" fill="#72A065"/>
<path opacity="0.201242" fill-rule="evenodd" clip-rule="evenodd" d="M2975.61 1016.28L2982.26 989.954L2964.29 1025.93L2975.61 1016.28Z" fill="black"/>
<path opacity="0.200591" d="M3099.58 1077.22L3130.61 1033.17L3093.13 976.275" stroke="black" stroke-width="5"/>
<path fill-rule="evenodd" clip-rule="evenodd" d="M3236.15 1557.66H3257.38V1488.7H3236.15V1557.66Z" fill="#DCEEFF"/>
<path fill-rule="evenodd" clip-rule="evenodd" d="M3413.01 1557.66H3434.25V1488.7H3413.01V1557.66Z" fill="#DCEEFF"/>
<path fill-rule="evenodd" clip-rule="evenodd" d="M3311.46 1557.66H3332.69V1488.7H3311.46V1557.66Z" fill="#B6D4FF"/>
<path fill-rule="evenodd" clip-rule="evenodd" d="M3311.34 1500.94H3509.43V915.129H3311.34V1500.94Z" fill="#B6D4FF"/>
<path fill-rule="evenodd" clip-rule="evenodd" d="M3236.55 1500.94H3434.65V915.129H3236.55V1500.94Z" fill="#DCEEFF"/>
<path fill-rule="evenodd" clip-rule="evenodd" d="M3371.36 875.294C3371.36 892.126 3362.47 906.894 3349.13 915.128H3300.15C3286.81 906.894 3277.91 892.126 3277.91 875.294C3277.91 867.461 3279.84 860.087 3283.24 853.611H3366.04C3369.43 860.087 3371.36 867.461 3371.36 875.294" fill="#DCEEFF"/>
<path fill-rule="evenodd" clip-rule="evenodd" d="M3383.78 915.118H3403.98V838H3383.78V915.118Z" fill="#DCEEFF"/>
<path fill-rule="evenodd" clip-rule="evenodd" d="M3363.59 915.118H3383.78V838H3363.59V915.118Z" fill="#CCE3FF"/>
<path fill-rule="evenodd" clip-rule="evenodd" d="M3403.98 915.118H3424.17V838H3403.98V915.118Z" fill="#CCE3FF"/>
<path fill-rule="evenodd" clip-rule="evenodd" d="M3478.42 915.118H3424.17V838H3478.42C3480.68 838 3482.52 839.836 3482.52 842.102V911.016C3482.52 913.282 3480.68 915.118 3478.42 915.118" fill="#B6D4FF"/>
<path fill-rule="evenodd" clip-rule="evenodd" d="M3441.96 868.651H3464.72V861.015H3441.96V868.651Z" fill="#CCE3FF"/>
<path fill-rule="evenodd" clip-rule="evenodd" d="M3254.28 1481.63H3416.99V1313.02H3254.28V1481.63Z" fill="#CCE3FF"/>
<path fill-rule="evenodd" clip-rule="evenodd" d="M3254.28 1481.63H3310.42V1313.02H3254.28V1481.63Z" fill="#B6D4FF"/>
<path fill-rule="evenodd" clip-rule="evenodd" d="M3254.28 1292.1H3416.99V1123.49H3254.28V1292.1Z" fill="#CCE3FF"/>
<path fill-rule="evenodd" clip-rule="evenodd" d="M3254.28 1292.1H3310.42V1123.49H3254.28V1292.1Z" fill="#B6D4FF"/>
<path fill-rule="evenodd" clip-rule="evenodd" d="M3254.28 1102.57H3416.99V933.958H3254.28V1102.57Z" fill="#CCE3FF"/>
<path fill-rule="evenodd" clip-rule="evenodd" d="M3254.28 1102.57H3310.42V933.958H3254.28V1102.57Z" fill="#B6D4FF"/>
<path fill-rule="evenodd" clip-rule="evenodd" d="M3293.24 1481.63H3309.34V1420.13H3293.24V1481.63Z" fill="#DCEEFF"/>
<path fill-rule="evenodd" clip-rule="evenodd" d="M3277.14 1481.63H3293.24V1420.13H3277.14V1481.63Z" fill="#CCE3FF"/>
<path fill-rule="evenodd" clip-rule="evenodd" d="M3309.35 1481.63H3325.45V1420.13H3309.35V1481.63Z" fill="#CCE3FF"/>
<path fill-rule="evenodd" clip-rule="evenodd" d="M3367.88 1481.63H3325.45V1420.13H3367.88C3370.14 1420.13 3371.98 1421.97 3371.98 1424.23V1477.53C3371.98 1479.79 3370.14 1481.63 3367.88 1481.63" fill="#B6D4FF"/>
<path fill-rule="evenodd" clip-rule="evenodd" d="M3332.34 1435.18H3365.09V1429.09H3332.34V1435.18Z" fill="#CCE3FF"/>
<path fill-rule="evenodd" clip-rule="evenodd" d="M3339.64 1444.58H3357.79V1438.49H3339.64V1444.58Z" fill="#CCE3FF"/>
<path fill-rule="evenodd" clip-rule="evenodd" d="M3349.61 1076.45C3348.36 1086.94 3343.05 1096.19 3335.28 1102.57H3284.53C3276.76 1096.19 3271.45 1086.94 3270.19 1076.45H3349.61Z" fill="#DCEEFF"/>
<path fill-rule="evenodd" clip-rule="evenodd" d="M3349.61 1054.66C3347.24 1074.48 3330.37 1089.86 3309.9 1089.86C3289.43 1089.86 3272.56 1074.48 3270.2 1054.66H3349.61Z" fill="#DCEEFF"/>
<path fill-rule="evenodd" clip-rule="evenodd" d="M3349.61 1032.89C3348.36 1043.38 3343.05 1052.63 3335.28 1059H3284.53C3276.76 1052.63 3271.45 1043.38 3270.19 1032.89H3349.61Z" fill="#DCEEFF"/>
<path fill-rule="evenodd" clip-rule="evenodd" d="M3349.61 1011.09C3347.24 1030.91 3330.37 1046.29 3309.9 1046.29C3289.43 1046.29 3272.56 1030.91 3270.2 1011.09H3349.61Z" fill="#DCEEFF"/>
<path fill-rule="evenodd" clip-rule="evenodd" d="M3323.46 1251.6C3323.46 1267.03 3321.81 1281.15 3319.07 1292.1H3290.31C3287.57 1281.15 3285.91 1267.03 3285.91 1251.6" fill="#ECF6FF"/>
<path d="M3322.04 1258.38C3328.56 1259.67 3332.8 1265.99 3331.51 1272.51C3330.23 1279.03 3323.9 1283.28 3317.37 1281.99" stroke="#ECF6FF" stroke-width="8"/>
<path fill-rule="evenodd" clip-rule="evenodd" d="M3381.08 1251.6C3381.08 1267.03 3379.43 1281.15 3376.68 1292.1H3347.92C3345.18 1281.15 3343.53 1267.03 3343.53 1251.6" fill="#ECF6FF"/>
<path d="M3373.42 1258.38C3379.94 1259.67 3384.18 1265.99 3382.89 1272.51C3381.61 1279.03 3375.28 1283.28 3368.75 1281.99" stroke="#ECF6FF" stroke-width="8"/>
<path d="M3088 562H3309V562C3309 575.255 3298.25 586 3285 586H3112C3098.75 586 3088 575.255 3088 562V562Z" fill="black"/>
</g>
<rect x="2939.15" y="554" width="520" height="991" rx="70" stroke="black" stroke-width="20"/>
<path fill-rule="evenodd" clip-rule="evenodd" d="M2879.81 925.681L2880.31 917.052C2880.31 917.052 2880.3 911.048 2879.52 904.566C2879.33 902.94 2878.9 901.239 2878.44 899.423C2877.07 894 2875.44 887.549 2879 878.977C2883.75 867.544 2872.39 875.438 2869.87 880.876C2868.9 882.977 2868.62 886.154 2868.34 889.305V889.305C2868.01 892.95 2867.69 896.56 2866.31 898.432C2864.13 897.249 2862.69 895.708 2862.69 895.708L2838.19 864.075C2837.4 863.011 2835.94 862.693 2834.78 863.319L2833.46 864.035C2832.07 864.79 2831.63 866.56 2832.52 867.852C2834.22 870.336 2837.19 874.524 2840.29 878.902L2840.29 878.903C2845.91 886.847 2851.98 895.414 2851.72 895.549L2851.07 896.334L2822.3 866.133C2821.41 865.128 2819.9 864.95 2818.79 865.715L2817.06 866.908C2815.8 867.773 2815.53 869.503 2816.47 870.696C2819.54 874.64 2827.13 883.182 2833.46 890.293L2833.46 890.294C2838.93 896.446 2843.44 901.527 2843.25 901.633L2842.4 902.458L2815.61 878.907C2814.67 877.853 2813.05 877.734 2811.95 878.619L2810.64 879.683C2809.49 880.607 2809.32 882.287 2810.26 883.421L2835.56 907.101L2834.83 908.244L2812.87 892.885C2811.86 891.99 2810.34 891.99 2809.32 892.875L2808.71 893.422C2807.64 894.376 2807.52 896.016 2808.46 897.12C2809.95 898.881 2812.91 901.194 2816.43 903.951L2816.43 903.952C2820.49 907.125 2825.3 910.888 2829.5 915.074C2831.82 917.38 2833.68 919.641 2835.57 921.931C2838.66 925.673 2841.81 929.494 2847.09 933.724C2850.24 936.258 2853.09 937.732 2855.8 939.135C2856.18 939.333 2856.57 939.53 2856.94 939.728L2879.81 925.681ZM3077.23 905.883C3077.23 905.883 3060.31 905.85 3048.09 905.809C3035.88 905.768 3020.52 910.908 3020.52 910.908C3020.52 910.908 3012.53 928.878 3040.29 927.251C3068.05 925.622 3077.23 905.883 3077.23 905.883ZM3169.79 978.601C3169.79 978.601 3196.87 1019.3 3196.26 1041.94C3195.54 1068.63 3110.32 1134.2 3110.32 1134.2L3088.23 1116.2L3141.88 1041.33L3122.37 999.727L3169.79 978.601Z" fill="#E576C6"/>
<path d="M3094.65 1083.56L3081.45 1101.28L3121.19 1135.95C3121.19 1135.95 3194.11 1082.45 3196.36 1040.51C3197.8 1013.8 3174.45 975.663 3174.45 975.663C3174.45 975.663 3145.14 928.779 3111.26 912.956C3104.3 909.709 3087.45 907 3077.23 905.883C3074.1 905.54 3075.97 906.762 3074.89 908.829C3073.77 910.989 3070.35 914.19 3067.98 916.582C3063.06 921.561 3053.36 925.331 3048.14 926.103C3044.17 926.691 3036.5 927.604 3032.8 927.107C3029.11 926.611 3025.09 924.942 3024.02 923.951C3022.95 922.96 3021.35 921.719 3020.52 919.809C3019.7 917.898 3019.74 918.445 3019.74 916.683C3019.74 914.92 3019.83 915.181 3020 914.342C3020.17 913.503 3020.17 912.999 3020.28 912.566C3020.72 910.648 3020.52 910.908 3020.52 910.908C3000.52 916.954 2990.39 919.192 2983.11 927.987L2927.43 967.098L2889.33 917.341L2840.17 950.376C2840.17 950.376 2883.69 1031.54 2915.24 1040.51C2940.65 1047.74 2966.39 1025.26 2975.44 1016.24L2964.69 1070.88C2962.96 1080.31 2971.22 1083.88 2978.57 1083.55L3094.65 1083.56Z" fill="#72A065"/>
<path opacity="0.201242" fill-rule="evenodd" clip-rule="evenodd" d="M2975.61 1016.28L2982.26 989.954L2964.29 1025.93L2975.61 1016.28Z" fill="black"/>
<path opacity="0.200591" d="M3099.58 1077.22L3130.61 1033.17L3093.13 976.274" stroke="black" stroke-width="5"/>
<path d="M2208.81 868.551C2208.99 869.601 2209.08 870.68 2209.08 871.781C2209.08 871.809 2209.08 871.837 2209.08 871.866C2218.6 882.094 2223.63 896.366 2221.54 911.197C2217.86 937.278 2193.51 955.606 2167.42 951.927L2121.7 945.477C2095.61 941.797 2077.28 917.449 2080.96 891.368C2083.55 872.994 2096.41 858.467 2112.9 852.774C2108.41 846.019 2106.27 837.671 2107.49 829.059C2109.72 813.271 2122.52 801.451 2137.72 799.766C2136.48 795.673 2136.08 791.259 2136.72 786.764H2136.72C2139.06 770.183 2154.54 758.529 2171.12 760.869C2175.34 761.464 2179.24 762.908 2182.67 765.004C2192.26 759.479 2203.64 756.28 2215.84 756.28C2250.1 756.28 2277.87 781.493 2277.87 812.595C2277.87 843.696 2250.1 868.909 2215.84 868.909C2213.47 868.909 2211.12 868.788 2208.81 868.551V868.551Z" fill="#FCBDA4"/>
<path fill-rule="evenodd" clip-rule="evenodd" d="M2225.3 880.029C2225.3 880.029 2213.94 880.365 2209.1 877.721L2224.69 887.512L2225.3 880.029Z" fill="#CF3E83"/>
<path d="M2197.69 854.284C2191.76 849.108 2182.02 846.571 2182.01 837.628C2182 834.486 2183.84 829.046 2190.62 829.036C2199.22 829.023 2198.54 838.747 2198.44 839.83L2198.43 839.885L2198.43 839.885C2198.43 839.913 2198.43 839.927 2198.43 839.927C2199.4 840.307 2200.38 840.339 2201.36 840.079C2208.33 840.158 2226.04 838.045 2235.91 816.016C2237.99 818.203 2240.33 820.124 2242.88 821.744C2250.22 826.403 2259.27 828.565 2268.53 827.489C2267.96 838.615 2264.7 866.856 2250.61 876.223C2244.82 880.074 2234.28 880.548 2225.3 880.03L2223.24 905.538C2223.24 905.538 2195.8 893.582 2194.67 890.32C2202.95 888.221 2209.08 880.716 2209.08 871.781C2209.08 863.971 2204.4 857.253 2197.69 854.284V854.284Z" fill="#E374C4"/>
<path fill-rule="evenodd" clip-rule="evenodd" d="M2249.99 839.908L2256.49 855.665L2248.95 855.513L2249.99 839.908Z" fill="#405FD3"/>
<path fill-rule="evenodd" clip-rule="evenodd" d="M2243.07 840.591C2242.91 843.738 2241.05 846.191 2238.93 846.069C2236.81 845.946 2235.22 843.296 2235.38 840.148C2235.54 837 2237.4 834.548 2239.52 834.67C2241.64 834.792 2243.23 837.444 2243.07 840.591" fill="#0D0B6D"/>
<path fill-rule="evenodd" clip-rule="evenodd" d="M2263 840.088C2262.83 843.236 2260.98 845.688 2258.86 845.566C2256.74 845.444 2255.15 842.793 2255.31 839.645C2255.47 836.498 2257.32 834.044 2259.45 834.166C2261.57 834.289 2263.16 836.94 2263 840.088" fill="#0D0B6D"/>
<path d="M2247.1 863.061C2247.1 863.061 2242.18 864.647 2237.26 859.172" stroke="#1C295E" stroke-width="3"/>
<path opacity="0.401762" fill-rule="evenodd" clip-rule="evenodd" d="M2225.28 880.029C2225.28 880.029 2213.92 880.365 2209.08 877.72L2224.67 887.511L2225.28 880.029Z" fill="black"/>
<path fill-rule="evenodd" clip-rule="evenodd" d="M2301.08 1086.83C2301.08 1086.83 2291.15 1088.08 2289.27 1092.53C2283.86 1105.23 2295.06 1127.96 2295.06 1127.96C2295.06 1127.96 2290.31 1125.06 2289.37 1127.59C2288.95 1128.72 2288 1137.72 2305.78 1138.33C2307.66 1138.39 2312.21 1134.55 2312.21 1134.55C2312.21 1134.55 2308.89 1140.87 2313.96 1142.11C2313.96 1142.11 2322.13 1129.87 2322.26 1127.15C2322.38 1124.43 2319.76 1110.64 2318.34 1107.86C2316.93 1105.07 2301.08 1086.83 2301.08 1086.83ZM2132.96 1109.14L2129.44 1087.28C2124.64 1089.5 2120.5 1089.31 2117.05 1089.16C2113.51 1089 2110.7 1088.88 2108.66 1091.42C2104.59 1096.49 2099.92 1106.9 2097.48 1113.07C2096.48 1115.62 2095.89 1124.94 2096.65 1130.21C2097.08 1133.19 2098.56 1136.11 2098.56 1136.11C2098.56 1136.11 2100.04 1141.69 2100.84 1142.28C2103.12 1143.93 2104.57 1141.56 2104.57 1141.56C2104.57 1141.56 2105.14 1149.39 2106.94 1148.9C2108.05 1148.59 2109.79 1147.39 2110.1 1145.51C2112.08 1133.51 2116.26 1121.28 2120.71 1119.71C2123.56 1118.7 2123.84 1123.57 2124.1 1128.13C2124.24 1130.67 2124.38 1133.11 2124.96 1134.39C2126.52 1137.85 2134.16 1141.26 2132.95 1135.43C2131.29 1127.45 2131.69 1124.26 2132.27 1119.49C2132.3 1119.26 2132.33 1119.03 2132.36 1118.8C2132.98 1113.64 2132.96 1109.14 2132.96 1109.14Z" fill="#E375C4"/>
<path opacity="0.152414" d="M2298.69 1103.25C2298.69 1103.25 2301.19 1112.68 2309.75 1115.61C2312.74 1116.64 2311.99 1128.76 2319.33 1127.31" stroke="black" stroke-width="3"/>
<path d="M2193.64 898.383L2196.16 880.121L2234.54 885.412L2232.44 900.588C2243.71 901.676 2251.38 903.874 2258.56 910.462C2281.61 931.621 2283.3 1010.83 2283.3 1010.83L2307.66 1094.05L2287.61 1096.56C2287.61 1096.56 2254.06 1052.1 2246.64 1028.19H2177.91C2177.91 1028.19 2178.56 1021.08 2176.94 1010.82C2174.82 997.388 2167.18 987.375 2167.18 987.375L2153.37 1004.36L2129.44 1089.1L2107.46 1093.04C2107.46 1093.04 2100.86 1023.77 2114.2 985.944C2125.87 952.858 2147.15 916.926 2163.77 906.457C2174.32 899.808 2184.23 898.349 2193.64 898.383V898.383Z" fill="#CE3D29"/>
<path opacity="0.195894" d="M2253.47 1029.11C2256.28 993.328 2275.79 985.761 2261.73 945.63" stroke="black" stroke-width="3"/>
<path opacity="0.195894" d="M2184.3 961.439L2167.18 987.371" stroke="black" stroke-width="3"/>
<path fill-rule="evenodd" clip-rule="evenodd" d="M2198.1 1505.98L2176.72 1507.05C2176.72 1507.05 2160.57 1511.03 2149.42 1532.96H2200.38L2198.1 1505.98ZM2354.35 1533.22C2339.23 1517.53 2299 1506.99 2299 1506.99L2283.92 1506.52L2281.95 1533.35L2354.35 1533.22Z" fill="#0D0B6D"/>
<path fill-rule="evenodd" clip-rule="evenodd" d="M2167.26 1521.16C2179.58 1520.92 2188.01 1514.28 2192.39 1509.69L2197.41 1510.61L2214.75 1241.79L2158.82 1267.7L2180.1 1504.93C2176.54 1507.32 2156.05 1521.38 2167.26 1521.16ZM2334.85 1520.2L2306.01 1507.69C2304.35 1496.7 2297.35 1448.9 2290.89 1384.68C2285.1 1327.07 2280.06 1274.34 2280.06 1274.34L2231.95 1276.58L2284.56 1510.08H2290.27C2299.43 1514.75 2317.17 1522.13 2334.85 1520.2Z" fill="#E375C4"/>
<path d="M2179.33 1027C2179.33 1027 2164.42 1034.13 2151.45 1072.82C2134.09 1124.6 2129 1281.45 2129 1281.45H2296.19L2253.11 1028.12L2179.33 1027Z" fill="#2F2F3D"/>
</svg>
