<svg width="1606" height="1025" viewBox="0 0 1606 1025" fill="none" xmlns="http://www.w3.org/2000/svg">
<path d="M683.507 667.301L646.766 589.447" stroke="#CCE3FF" stroke-width="12"/>
<path d="M724.288 545.125L646.766 589.447" stroke="#CCE3FF" stroke-width="12"/>
<path d="M723.387 546.081H755.009" stroke="#CCE3FF" stroke-width="12"/>
<path fill-rule="evenodd" clip-rule="evenodd" d="M659.866 674.382H728.812C728.812 668.112 723.728 663.03 717.457 663.03H671.221C664.949 663.03 659.866 668.112 659.866 674.382" fill="#DCEEFF"/>
<path fill-rule="evenodd" clip-rule="evenodd" d="M784.059 572.042C784.059 556.002 771.053 543 755.009 543C738.965 543 725.959 556.002 725.959 572.042" fill="#DCEEFF"/>
<path fill-rule="evenodd" clip-rule="evenodd" d="M579.944 960.075H586.455L626.466 693.587H603.95L579.944 960.075Z" fill="#B6D4FF"/>
<path fill-rule="evenodd" clip-rule="evenodd" d="M693.932 960.075H700.443L740.454 693.587H717.938L693.932 960.075Z" fill="#B6D4FF"/>
<path fill-rule="evenodd" clip-rule="evenodd" d="M853.647 592.797H950.986L928.147 668.074H830.808L853.647 592.797Z" fill="#DCEEFF"/>
<path fill-rule="evenodd" clip-rule="evenodd" d="M944.134 597.639L924.636 661.914H837.529L857.027 597.639H944.134Z" fill="white"/>
<path fill-rule="evenodd" clip-rule="evenodd" d="M928.235 617.422L927.306 620.495H855.805L856.734 617.422H928.235Z" fill="#B6D4FF"/>
<path fill-rule="evenodd" clip-rule="evenodd" d="M923.674 623.682L922.745 626.755H853.585L854.513 623.682H923.674Z" fill="#B6D4FF"/>
<path fill-rule="evenodd" clip-rule="evenodd" d="M902.007 629.942L901.079 633.016H851.424L852.352 629.942H902.007Z" fill="#B6D4FF"/>
<path fill-rule="evenodd" clip-rule="evenodd" d="M759.633 674.264H856.971V668.074H759.633V674.264Z" fill="#DCEEFF"/>
<path fill-rule="evenodd" clip-rule="evenodd" d="M856.971 674.264H928.112V668.074H856.971V674.264Z" fill="#ECF6FF"/>
<path fill-rule="evenodd" clip-rule="evenodd" d="M950.906 592.797H956.887L934.048 668.074H928.067L950.906 592.797Z" fill="#ECF6FF"/>
<path fill-rule="evenodd" clip-rule="evenodd" d="M553.628 693.587H921.328V674.265H553.628V693.587Z" fill="#B6D4FF"/>
<path fill-rule="evenodd" clip-rule="evenodd" d="M894.736 693.587H1038.19V674.265H894.736V693.587Z" fill="#DCEEFF"/>
<path fill-rule="evenodd" clip-rule="evenodd" d="M1019.99 960.075H1026.5L1002.49 693.587H979.974L1019.99 960.075Z" fill="#DCEEFF"/>
<path fill-rule="evenodd" clip-rule="evenodd" d="M905.557 960.075H912.069L888.062 693.587H865.547L905.557 960.075Z" fill="#DCEEFF"/>
<path fill-rule="evenodd" clip-rule="evenodd" d="M931.806 605.278L930.878 608.352H859.376L860.304 605.278H931.806Z" fill="#B6D4FF"/>
<path fill-rule="evenodd" clip-rule="evenodd" d="M922.291 611.539L921.363 614.612H857.663L858.592 611.539H922.291Z" fill="#B6D4FF"/>
<path fill-rule="evenodd" clip-rule="evenodd" d="M907.411 596.832L895.245 598.305L894.271 596.776L894.912 595.38L893.986 594.27L905.352 592.797L907.068 593.822L905.631 595.258L907.411 596.832Z" fill="#B6D4FF"/>
<path fill-rule="evenodd" clip-rule="evenodd" d="M655.401 771.752V773.08C655.401 784.16 646.803 793.135 636.206 793.135H485.842C462.649 793.135 444.8 770.888 448.001 745.96L464.976 607.064C466.446 595.56 475.505 587 486.209 587H530.774C541.472 587 550.529 595.56 552.008 607.064L568.984 745.96C569.113 746.952 569.205 747.944 569.26 748.928L569.351 748.912C569.351 748.912 572.491 771.752 601.679 771.752H655.401Z" fill="#DCEEFF"/>
<path fill-rule="evenodd" clip-rule="evenodd" d="M495.327 949.593C495.327 956.677 489.581 962.421 482.496 962.421C475.409 962.421 469.665 956.677 469.665 949.593C469.665 942.509 475.409 936.765 482.496 936.765C489.581 936.765 495.327 942.509 495.327 949.593" fill="#B6D4FF"/>
<path fill-rule="evenodd" clip-rule="evenodd" d="M612.412 952.165H485.609C480.752 952.165 476.778 948.193 476.778 943.337C476.778 938.482 480.752 934.509 485.609 934.509H612.412C617.268 934.509 621.242 938.482 621.242 943.337C621.242 948.193 617.268 952.165 612.412 952.165" fill="#CCE3FF"/>
<path fill-rule="evenodd" clip-rule="evenodd" d="M542.504 947.967H555.517V792.6H542.504V947.967Z" fill="#CCE3FF"/>
<path fill-rule="evenodd" clip-rule="evenodd" d="M593.599 792.601L549.01 812.901L504.422 792.601H593.599Z" fill="#CCE3FF"/>
<path fill-rule="evenodd" clip-rule="evenodd" d="M549.997 952.165H533.542C528.685 952.165 524.711 948.193 524.711 943.337C524.711 938.482 528.685 934.509 533.542 934.509H549.997C554.853 934.509 558.827 938.482 558.827 943.337C558.827 948.193 554.853 952.165 549.997 952.165" fill="#B6D4FF"/>
<path fill-rule="evenodd" clip-rule="evenodd" d="M539.203 949.593C539.203 956.677 533.458 962.421 526.372 962.421C519.285 962.421 513.541 956.677 513.541 949.593C513.541 942.509 519.285 936.765 526.372 936.765C533.458 936.765 539.203 942.509 539.203 949.593" fill="#B6D4FF"/>
<path fill-rule="evenodd" clip-rule="evenodd" d="M629.205 949.593C629.205 956.677 623.461 962.421 616.374 962.421C609.287 962.421 603.543 956.677 603.543 949.593C603.543 942.509 609.287 936.765 616.374 936.765C623.461 936.765 629.205 942.509 629.205 949.593" fill="#B6D4FF"/>
<path fill-rule="evenodd" clip-rule="evenodd" d="M713.59 165.221H374.957V151H713.59V165.221Z" fill="#DCEEFF"/>
<path fill-rule="evenodd" clip-rule="evenodd" d="M374.957 165.221H319.247V151H374.957V165.221Z" fill="#CCE3FF"/>
<path fill-rule="evenodd" clip-rule="evenodd" d="M631.055 165.221L604.611 206.698V165.221H631.055Z" fill="#B6D4FF"/>
<path fill-rule="evenodd" clip-rule="evenodd" d="M645.689 165.221L619.245 206.698H604.611L631.055 165.221H645.689Z" fill="#CCE3FF"/>
<path fill-rule="evenodd" clip-rule="evenodd" d="M437.101 165.221L410.656 206.698V165.221H437.101Z" fill="#B6D4FF"/>
<path fill-rule="evenodd" clip-rule="evenodd" d="M451.735 165.221L425.291 206.698H410.656L437.101 165.221H451.735Z" fill="#CCE3FF"/>
<path fill-rule="evenodd" clip-rule="evenodd" d="M750.365 164.248H875.62V59H750.365V164.248Z" fill="#DCEEFF"/>
<path fill-rule="evenodd" clip-rule="evenodd" d="M750.365 164.248H875.62V59H750.365V164.248Z" stroke="#DCEEFF" stroke-width="5"/>
<path fill-rule="evenodd" clip-rule="evenodd" d="M743 164.39H868.254V59.1421H743V164.39Z" fill="white"/>
<path fill-rule="evenodd" clip-rule="evenodd" d="M743 164.39H868.254V59.1421H743V164.39Z" stroke="#DCEEFF" stroke-width="5"/>
<path fill-rule="evenodd" clip-rule="evenodd" d="M764.333 142.646H845.136V80.603H764.333V142.646Z" fill="#DCEEFF"/>
<path fill-rule="evenodd" clip-rule="evenodd" d="M792.266 267.73H868.384V179H792.266V267.73Z" fill="#DCEEFF"/>
<path fill-rule="evenodd" clip-rule="evenodd" d="M792.266 267.73H868.384V179H792.266V267.73Z" stroke="#DCEEFF" stroke-width="5"/>
<path fill-rule="evenodd" clip-rule="evenodd" d="M787 267.73H864.535V179H787V267.73Z" fill="white"/>
<path fill-rule="evenodd" clip-rule="evenodd" d="M787 267.73H864.535V179H787V267.73Z" stroke="#DCEEFF" stroke-width="5"/>
<path fill-rule="evenodd" clip-rule="evenodd" d="M805.352 244.641H842.61V201.927H805.352V244.641Z" fill="#CCE3FF"/>
<path fill-rule="evenodd" clip-rule="evenodd" d="M909.32 186.452H1049.74V25H909.32V186.452Z" fill="#DCEEFF"/>
<path fill-rule="evenodd" clip-rule="evenodd" d="M909.32 186.452H1049.74V25H909.32V186.452Z" stroke="#DCEEFF" stroke-width="9"/>
<path fill-rule="evenodd" clip-rule="evenodd" d="M904 186.452H1044.41V25H904V186.452Z" fill="white"/>
<path fill-rule="evenodd" clip-rule="evenodd" d="M904 186.452H1044.41V25H904V186.452Z" stroke="#DCEEFF" stroke-width="9"/>
<path fill-rule="evenodd" clip-rule="evenodd" d="M933.625 152.628H1012.79V58.824H933.625V152.628Z" fill="#CCE3FF"/>
<rect x="1043.15" y="22" width="520" height="991" rx="70" fill="white"/>
<mask id="mask0" mask-type="alpha" maskUnits="userSpaceOnUse" x="1053" y="32" width="501" height="971">
<rect x="1060.15" y="39" width="486" height="957" rx="53" fill="#EDF4FE" stroke="black" stroke-width="14"/>
</mask>
<g mask="url(#mask0)">
<path fill-rule="evenodd" clip-rule="evenodd" d="M1084 277.076C1084 291.412 1093.2 303.033 1104.55 303.033C1115.91 303.033 1125.11 291.412 1125.11 277.076C1125.11 262.74 1115.91 251.118 1104.55 251.118C1093.2 251.118 1084 262.74 1084 277.076" fill="#19141E"/>
<path d="M1132.64 379.905L1133.51 350.092C1133.51 350.092 1097.41 352.977 1089.69 348.951C1089.69 348.951 1080.25 300.149 1091.51 273.124L1091.74 272.072L1167.9 263.129L1172.17 307C1174.74 299.404 1195.92 290.79 1201.45 301.668C1213.45 325.238 1170.56 341.109 1170.56 341.109L1174.91 380.263" fill="#E576C6"/>
<path opacity="0.398926" fill-rule="evenodd" clip-rule="evenodd" d="M1133.5 350.092L1157.84 344.854L1133.62 361.277L1133.5 350.092Z" fill="black"/>
<path fill-rule="evenodd" clip-rule="evenodd" d="M1114.05 306.442L1105.64 327.081L1115.72 327.21L1114.05 306.442Z" fill="#405FD3"/>
<path fill-rule="evenodd" clip-rule="evenodd" d="M1123.02 307.237C1122.52 310.016 1124.36 312.677 1127.12 313.179C1129.89 313.682 1132.54 311.836 1133.04 309.057C1133.55 306.278 1131.71 303.618 1128.94 303.115C1126.17 302.612 1123.52 304.458 1123.02 307.237" fill="#0D0B6D"/>
<path fill-rule="evenodd" clip-rule="evenodd" d="M1094.76 307.237C1094.25 310.016 1096.09 312.677 1098.86 313.179C1101.63 313.682 1104.28 311.836 1104.78 309.057C1105.28 306.278 1103.44 303.618 1100.68 303.115C1097.91 302.612 1095.26 304.458 1094.76 307.237" fill="#0D0B6D"/>
<path d="M1166.52 314.488C1173.74 302.082 1184.19 298.298 1188.88 297.189C1190.75 291.762 1192.18 285.468 1193.18 278.775C1195.87 260.86 1182.89 244.516 1172.41 239.823C1161.8 235.073 1143.5 228.491 1116.72 237.426C1098.72 243.436 1087.21 229.046 1076.62 235.192C1058.51 245.697 1075.35 291.69 1121.25 280.006C1154.09 271.648 1154.93 273.745 1155.22 279.82C1156.13 299.457 1159.18 311.01 1166.52 314.488V314.488Z" fill="#2F2F3D"/>
<path fill-rule="evenodd" clip-rule="evenodd" d="M1128.05 327.977C1128.05 327.977 1124.81 333.878 1117.82 333.739Z" fill="white"/>
<path d="M1128.05 327.977C1128.05 327.977 1124.81 333.878 1117.82 333.739" stroke="#252535" stroke-width="4"/>
<path fill-rule="evenodd" clip-rule="evenodd" d="M1116.49 307.484C1116.49 313.945 1121.71 319.182 1128.15 319.182C1134.59 319.182 1139.8 313.945 1139.8 307.484C1139.8 301.023 1134.59 295.785 1128.15 295.785C1121.71 295.785 1116.49 301.023 1116.49 307.484Z" stroke="#252535" stroke-width="4"/>
<path fill-rule="evenodd" clip-rule="evenodd" d="M1087.14 307.484C1087.14 313.945 1092.36 319.182 1098.8 319.182C1105.23 319.182 1110.45 313.945 1110.45 307.484C1110.45 301.023 1105.23 295.785 1098.8 295.785C1092.36 295.785 1087.14 301.023 1087.14 307.484Z" stroke="#252535" stroke-width="4"/>
<path d="M1111.4 308.026H1116.44" stroke="#252535" stroke-width="4"/>
<path d="M1139.8 307.484H1168.6" stroke="#252535" stroke-width="4"/>
<path d="M1097.88 1017.5L1098.6 1040.19H1140.1L1139.37 1017.43C1144.02 1015.56 1147.34 1011.07 1147.45 1005.76L1154.13 665.867L1226.3 1009.02C1227.32 1013.84 1230.89 1017.59 1235.43 1018.97L1238.14 1040.19H1281.65L1277.9 1016.77C1281.52 1013.95 1283.62 1009.32 1282.9 1004.38L1216.46 549.577L1156.42 549.577L1156.42 549.403H1083.7L1088.06 1005.12C1088.12 1011.12 1092.28 1016.13 1097.88 1017.5V1017.5Z" fill="#2F2F3D"/>
<path opacity="0.197824" fill-rule="evenodd" clip-rule="evenodd" d="M1154.5 671.253L1141.77 614.682L1151.35 786.189L1154.5 671.253Z" fill="black"/>
<path d="M1200.92 550.005L1193.96 551.145L1269.95 1014.62L1276.94 1013.45L1200.92 550.005Z" fill="#EFEFEF"/>
<path fill-rule="evenodd" clip-rule="evenodd" d="M983.81 393.681L984.309 385.052C984.309 385.052 984.299 379.048 983.521 372.566C983.325 370.94 982.896 369.239 982.438 367.423C981.069 362.001 979.441 355.549 983.001 346.977C987.754 335.544 976.391 343.438 973.875 348.876C972.903 350.978 972.619 354.154 972.338 357.305V357.306C972.014 360.95 971.692 364.561 970.31 366.432C968.133 365.249 966.685 363.708 966.685 363.708L942.191 332.075C941.403 331.011 939.945 330.693 938.776 331.319L937.458 332.035C936.07 332.791 935.631 334.56 936.52 335.853C938.219 338.336 941.185 342.524 944.286 346.902L944.286 346.903C949.912 354.847 955.979 363.415 955.722 363.549L955.072 364.335L926.305 334.133C925.406 333.129 923.898 332.95 922.79 333.715L921.063 334.908C919.804 335.773 919.535 337.503 920.473 338.696C923.541 342.64 931.135 351.182 937.457 358.293L937.458 358.295C942.927 364.447 947.444 369.527 947.254 369.633L946.395 370.458L919.615 346.907C918.666 345.854 917.049 345.734 915.95 346.619L914.642 347.683C913.494 348.607 913.324 350.288 914.263 351.421L939.555 375.101L938.826 376.244L916.869 360.885C915.86 359.99 914.343 359.99 913.324 360.875L912.715 361.422C911.637 362.376 911.517 364.017 912.455 365.12C913.95 366.881 916.908 369.194 920.434 371.952L920.435 371.952C924.494 375.126 929.305 378.888 933.504 383.074C935.817 385.38 937.682 387.641 939.572 389.931C942.659 393.673 945.811 397.494 951.088 401.724C954.238 404.259 957.088 405.733 959.801 407.135C960.185 407.333 960.565 407.53 960.944 407.729L983.81 393.681ZM1181.23 373.883C1181.23 373.883 1164.31 373.85 1152.09 373.81C1139.88 373.768 1124.52 378.909 1124.52 378.909C1124.52 378.909 1116.53 396.879 1144.29 395.251C1172.05 393.622 1181.23 373.883 1181.23 373.883ZM1273.79 446.602C1273.79 446.602 1300.87 487.304 1300.26 509.939C1299.54 536.628 1214.32 602.205 1214.32 602.205L1192.23 584.197L1245.88 509.328L1226.37 467.727L1273.79 446.602Z" fill="#E576C6"/>
<path d="M1198.65 551.562L1185.45 569.282L1225.19 603.949C1225.19 603.949 1298.11 550.455 1300.36 508.512C1301.8 481.798 1278.45 443.664 1278.45 443.664C1278.45 443.664 1249.14 396.779 1215.26 380.957C1208.3 377.709 1191.45 375.001 1181.23 373.883C1178.1 373.541 1179.97 374.762 1178.89 376.83C1177.77 378.99 1174.35 382.19 1171.98 384.583C1167.06 389.562 1157.36 393.332 1152.14 394.104C1148.17 394.692 1140.5 395.604 1136.8 395.108C1133.11 394.611 1129.09 392.943 1128.02 391.951C1126.95 390.96 1125.35 389.72 1124.52 387.809C1123.7 385.899 1123.74 386.446 1123.74 384.683C1123.74 382.921 1123.83 383.181 1124 382.343C1124.17 381.504 1124.17 381 1124.28 380.566C1124.72 378.648 1124.52 378.909 1124.52 378.909C1104.52 384.955 1094.39 387.192 1087.11 395.988L1031.43 435.099L993.328 385.342L944.17 418.377C944.17 418.377 987.695 499.539 1019.24 508.512C1044.65 515.74 1070.39 493.261 1079.44 484.245L1068.69 538.882C1066.96 548.315 1075.22 551.885 1082.57 551.551L1198.65 551.562Z" fill="#72A065"/>
<path opacity="0.201242" fill-rule="evenodd" clip-rule="evenodd" d="M1079.61 484.277L1086.26 457.954L1068.29 493.928L1079.61 484.277Z" fill="black"/>
<path opacity="0.200591" d="M1203.58 545.218L1234.61 501.17L1197.13 444.275" stroke="black" stroke-width="5"/>
<path fill-rule="evenodd" clip-rule="evenodd" d="M1340.15 1025.66H1361.38V956.699H1340.15V1025.66Z" fill="#DCEEFF"/>
<path fill-rule="evenodd" clip-rule="evenodd" d="M1517.01 1025.66H1538.25V956.699H1517.01V1025.66Z" fill="#DCEEFF"/>
<path fill-rule="evenodd" clip-rule="evenodd" d="M1415.46 1025.66H1436.69V956.699H1415.46V1025.66Z" fill="#B6D4FF"/>
<path fill-rule="evenodd" clip-rule="evenodd" d="M1415.34 968.935H1613.43V383.129H1415.34V968.935Z" fill="#B6D4FF"/>
<path fill-rule="evenodd" clip-rule="evenodd" d="M1340.55 968.935H1538.65V383.129H1340.55V968.935Z" fill="#DCEEFF"/>
<path fill-rule="evenodd" clip-rule="evenodd" d="M1475.36 343.294C1475.36 360.126 1466.47 374.894 1453.13 383.128H1404.15C1390.81 374.894 1381.91 360.126 1381.91 343.294C1381.91 335.461 1383.84 328.087 1387.24 321.611H1470.04C1473.43 328.087 1475.36 335.461 1475.36 343.294" fill="#DCEEFF"/>
<path fill-rule="evenodd" clip-rule="evenodd" d="M1487.78 383.118H1507.98V306H1487.78V383.118Z" fill="#DCEEFF"/>
<path fill-rule="evenodd" clip-rule="evenodd" d="M1467.59 383.118H1487.78V306H1467.59V383.118Z" fill="#CCE3FF"/>
<path fill-rule="evenodd" clip-rule="evenodd" d="M1507.98 383.118H1528.17V306H1507.98V383.118Z" fill="#CCE3FF"/>
<path fill-rule="evenodd" clip-rule="evenodd" d="M1582.42 383.118H1528.17V306H1582.42C1584.68 306 1586.52 307.836 1586.52 310.102V379.016C1586.52 381.282 1584.68 383.118 1582.42 383.118" fill="#B6D4FF"/>
<path fill-rule="evenodd" clip-rule="evenodd" d="M1545.96 336.651H1568.72V329.015H1545.96V336.651Z" fill="#CCE3FF"/>
<path fill-rule="evenodd" clip-rule="evenodd" d="M1358.28 949.632H1520.99V781.023H1358.28V949.632Z" fill="#CCE3FF"/>
<path fill-rule="evenodd" clip-rule="evenodd" d="M1358.28 949.632H1414.42V781.023H1358.28V949.632Z" fill="#B6D4FF"/>
<path fill-rule="evenodd" clip-rule="evenodd" d="M1358.28 760.099H1520.99V591.491H1358.28V760.099Z" fill="#CCE3FF"/>
<path fill-rule="evenodd" clip-rule="evenodd" d="M1358.28 760.099H1414.42V591.491H1358.28V760.099Z" fill="#B6D4FF"/>
<path fill-rule="evenodd" clip-rule="evenodd" d="M1358.28 570.566H1520.99V401.958H1358.28V570.566Z" fill="#CCE3FF"/>
<path fill-rule="evenodd" clip-rule="evenodd" d="M1358.28 570.566H1414.42V401.958H1358.28V570.566Z" fill="#B6D4FF"/>
<path fill-rule="evenodd" clip-rule="evenodd" d="M1397.24 949.632H1413.35V888.133H1397.24V949.632Z" fill="#DCEEFF"/>
<path fill-rule="evenodd" clip-rule="evenodd" d="M1381.14 949.632H1397.24V888.133H1381.14V949.632Z" fill="#CCE3FF"/>
<path fill-rule="evenodd" clip-rule="evenodd" d="M1413.35 949.632H1429.45V888.133H1413.35V949.632Z" fill="#CCE3FF"/>
<path fill-rule="evenodd" clip-rule="evenodd" d="M1471.88 949.632H1429.45V888.133H1471.88C1474.14 888.133 1475.98 889.969 1475.98 892.235V945.529C1475.98 947.795 1474.14 949.632 1471.88 949.632" fill="#B6D4FF"/>
<path fill-rule="evenodd" clip-rule="evenodd" d="M1436.34 903.181H1469.09V897.092H1436.34V903.181Z" fill="#CCE3FF"/>
<path fill-rule="evenodd" clip-rule="evenodd" d="M1443.64 912.575H1461.79V906.486H1443.64V912.575Z" fill="#CCE3FF"/>
<path fill-rule="evenodd" clip-rule="evenodd" d="M1453.61 544.454C1452.36 554.942 1447.05 564.19 1439.28 570.566H1388.53C1380.76 564.19 1375.45 554.942 1374.19 544.454H1453.61Z" fill="#DCEEFF"/>
<path fill-rule="evenodd" clip-rule="evenodd" d="M1453.61 522.656C1451.24 542.478 1434.37 557.856 1413.9 557.856C1393.43 557.856 1376.56 542.478 1374.2 522.656H1453.61Z" fill="#DCEEFF"/>
<path fill-rule="evenodd" clip-rule="evenodd" d="M1453.61 500.89C1452.36 511.378 1447.05 520.626 1439.28 527.002H1388.53C1380.76 520.626 1375.45 511.378 1374.19 500.89H1453.61Z" fill="#DCEEFF"/>
<path fill-rule="evenodd" clip-rule="evenodd" d="M1453.61 479.09C1451.24 498.913 1434.37 514.291 1413.9 514.291C1393.43 514.291 1376.56 498.913 1374.2 479.09H1453.61Z" fill="#DCEEFF"/>
<path fill-rule="evenodd" clip-rule="evenodd" d="M1427.46 719.595C1427.46 735.031 1425.81 749.149 1423.07 760.099H1394.31C1391.57 749.149 1389.91 735.031 1389.91 719.595" fill="#ECF6FF"/>
<path d="M1426.04 726.378C1432.56 727.665 1436.8 733.995 1435.51 740.515C1434.23 747.035 1427.9 751.277 1421.37 749.99" stroke="#ECF6FF" stroke-width="8"/>
<path fill-rule="evenodd" clip-rule="evenodd" d="M1485.08 719.595C1485.08 735.031 1483.43 749.149 1480.68 760.099H1451.92C1449.18 749.149 1447.53 735.031 1447.53 719.595" fill="#ECF6FF"/>
<path d="M1477.42 726.378C1483.94 727.665 1488.18 733.995 1486.89 740.515C1485.61 747.035 1479.28 751.277 1472.75 749.99" stroke="#ECF6FF" stroke-width="8"/>
<path d="M1192 30H1413V30C1413 43.2548 1402.25 54 1389 54H1216C1202.75 54 1192 43.2548 1192 30V30Z" fill="black"/>
</g>
<rect x="1043.15" y="22" width="520" height="991" rx="70" stroke="black" stroke-width="20"/>
<path fill-rule="evenodd" clip-rule="evenodd" d="M983.81 393.681L984.309 385.052C984.309 385.052 984.299 379.048 983.521 372.566C983.325 370.94 982.896 369.239 982.438 367.423C981.069 362.001 979.441 355.549 983.001 346.977C987.754 335.544 976.391 343.438 973.875 348.876C972.903 350.978 972.619 354.154 972.338 357.305V357.306C972.014 360.95 971.692 364.561 970.31 366.432C968.133 365.249 966.685 363.708 966.685 363.708L942.191 332.075C941.403 331.011 939.945 330.693 938.776 331.319L937.458 332.035C936.07 332.791 935.631 334.56 936.52 335.853C938.219 338.336 941.185 342.524 944.286 346.902L944.286 346.903C949.912 354.847 955.979 363.415 955.722 363.549L955.072 364.335L926.305 334.133C925.406 333.129 923.898 332.95 922.79 333.715L921.063 334.908C919.804 335.773 919.535 337.503 920.473 338.696C923.541 342.64 931.135 351.182 937.457 358.293L937.458 358.295C942.927 364.447 947.444 369.527 947.254 369.633L946.395 370.458L919.615 346.907C918.666 345.854 917.049 345.734 915.95 346.619L914.642 347.683C913.494 348.607 913.324 350.288 914.263 351.421L939.555 375.101L938.826 376.244L916.869 360.885C915.86 359.99 914.343 359.99 913.324 360.875L912.715 361.422C911.637 362.376 911.517 364.017 912.455 365.12C913.95 366.881 916.908 369.194 920.434 371.952L920.435 371.952C924.494 375.126 929.305 378.888 933.504 383.074C935.817 385.38 937.682 387.641 939.572 389.931C942.659 393.673 945.811 397.494 951.088 401.724C954.238 404.259 957.088 405.733 959.801 407.135C960.185 407.333 960.565 407.53 960.944 407.729L983.81 393.681ZM1181.23 373.883C1181.23 373.883 1164.31 373.85 1152.09 373.81C1139.88 373.768 1124.52 378.909 1124.52 378.909C1124.52 378.909 1116.53 396.879 1144.29 395.251C1172.05 393.622 1181.23 373.883 1181.23 373.883ZM1273.79 446.602C1273.79 446.602 1300.87 487.304 1300.26 509.939C1299.54 536.628 1214.32 602.205 1214.32 602.205L1192.23 584.197L1245.88 509.328L1226.37 467.727L1273.79 446.602Z" fill="#E576C6"/>
<path d="M1198.65 551.562L1185.45 569.282L1225.19 603.949C1225.19 603.949 1298.11 550.455 1300.36 508.512C1301.8 481.798 1278.45 443.664 1278.45 443.664C1278.45 443.664 1249.14 396.779 1215.26 380.957C1208.3 377.709 1191.45 375.001 1181.23 373.883C1178.1 373.541 1179.97 374.762 1178.89 376.83C1177.77 378.99 1174.35 382.19 1171.98 384.583C1167.06 389.562 1157.36 393.332 1152.14 394.104C1148.17 394.692 1140.5 395.604 1136.8 395.108C1133.11 394.611 1129.09 392.943 1128.02 391.951C1126.95 390.96 1125.35 389.72 1124.52 387.809C1123.7 385.899 1123.74 386.446 1123.74 384.683C1123.74 382.921 1123.83 383.181 1124 382.343C1124.17 381.504 1124.17 381 1124.28 380.566C1124.72 378.648 1124.52 378.909 1124.52 378.909C1104.52 384.955 1094.39 387.192 1087.11 395.988L1031.43 435.099L993.328 385.342L944.17 418.377C944.17 418.377 987.695 499.539 1019.24 508.512C1044.65 515.74 1070.39 493.261 1079.44 484.245L1068.69 538.882C1066.96 548.315 1075.22 551.885 1082.57 551.551L1198.65 551.562Z" fill="#72A065"/>
<path opacity="0.201242" fill-rule="evenodd" clip-rule="evenodd" d="M1079.61 484.277L1086.26 457.954L1068.29 493.928L1079.61 484.277Z" fill="black"/>
<path opacity="0.200591" d="M1203.58 545.218L1234.61 501.17L1197.13 444.275" stroke="black" stroke-width="5"/>
<path d="M312.811 336.551C312.99 337.601 313.083 338.68 313.083 339.781C313.083 339.809 313.083 339.837 313.083 339.866C322.605 350.094 327.63 364.366 325.538 379.197C321.858 405.278 297.506 423.606 271.422 419.927L225.695 413.477C199.611 409.797 181.28 385.449 184.961 359.368C187.553 340.994 200.406 326.467 216.897 320.774C212.41 314.019 210.274 305.671 211.489 297.059C213.717 281.271 226.525 269.451 241.717 267.766C240.476 263.673 240.081 259.259 240.715 254.764H240.716C243.056 238.183 258.539 226.529 275.123 228.869C279.339 229.464 283.237 230.908 286.668 233.004C296.263 227.479 307.642 224.28 319.845 224.28C354.102 224.28 381.873 249.493 381.873 280.595C381.873 311.696 354.102 336.909 319.845 336.909C317.467 336.909 315.12 336.788 312.811 336.551V336.551Z" fill="#FCBDA4"/>
<path fill-rule="evenodd" clip-rule="evenodd" d="M329.296 348.029C329.296 348.029 317.938 348.365 313.096 345.721L328.693 355.511L329.296 348.029Z" fill="#CF3E83"/>
<path d="M301.687 322.284C295.76 317.108 286.02 314.571 286.007 305.628C286.001 302.486 287.839 297.046 294.621 297.036C303.218 297.023 302.539 306.747 302.437 307.83L302.427 307.885L302.432 307.885C302.429 307.913 302.427 307.927 302.427 307.927C303.404 308.307 304.383 308.339 305.361 308.079C312.331 308.158 330.037 306.045 339.91 284.016C341.989 286.203 344.333 288.124 346.878 289.744C354.221 294.403 363.272 296.565 372.531 295.489C371.962 306.615 368.698 334.856 354.613 344.223C348.822 348.074 338.279 348.548 329.297 348.03L327.238 373.538C327.238 373.538 299.803 361.582 298.671 358.32C306.954 356.221 313.083 348.716 313.083 339.781C313.083 331.971 308.4 325.253 301.687 322.284V322.284Z" fill="#E374C4"/>
<path fill-rule="evenodd" clip-rule="evenodd" d="M353.989 307.907L360.489 323.664L352.948 323.513L353.989 307.907Z" fill="#405FD3"/>
<path fill-rule="evenodd" clip-rule="evenodd" d="M347.068 308.591C346.905 311.739 345.055 314.191 342.932 314.069C340.81 313.947 339.221 311.296 339.383 308.148C339.545 305 341.396 302.548 343.518 302.67C345.64 302.792 347.23 305.444 347.068 308.591" fill="#0D0B6D"/>
<path fill-rule="evenodd" clip-rule="evenodd" d="M366.997 308.088C366.834 311.236 364.984 313.688 362.861 313.566C360.739 313.444 359.15 310.793 359.312 307.645C359.474 304.498 361.325 302.044 363.447 302.166C365.569 302.289 367.159 304.94 366.997 308.088" fill="#0D0B6D"/>
<path d="M351.097 331.06C351.097 331.06 346.183 332.647 341.26 327.172" stroke="#1C295E" stroke-width="3"/>
<path opacity="0.401762" fill-rule="evenodd" clip-rule="evenodd" d="M329.278 348.029C329.278 348.029 317.919 348.365 313.078 345.72L328.674 355.511L329.278 348.029Z" fill="black"/>
<path fill-rule="evenodd" clip-rule="evenodd" d="M405.083 554.835C405.083 554.835 395.155 556.083 393.265 560.526C387.86 573.235 399.06 595.956 399.06 595.956C399.06 595.956 394.315 593.061 393.371 595.592C392.95 596.719 391.998 605.721 409.777 606.326C411.665 606.391 416.205 602.552 416.205 602.552C416.205 602.552 412.895 608.873 417.964 610.114C417.964 610.114 426.134 597.875 426.26 595.152C426.385 592.427 423.763 578.64 422.345 575.856C420.927 573.071 405.083 554.835 405.083 554.835ZM236.961 577.144L233.444 555.279C228.645 557.496 224.501 557.313 221.051 557.161C217.508 557.004 214.696 556.88 212.659 559.422C208.594 564.491 203.917 574.904 201.482 581.073C200.477 583.62 199.888 592.939 200.647 598.207C201.078 601.19 202.559 604.113 202.559 604.113C202.559 604.113 204.036 609.695 204.842 610.28C207.12 611.933 208.575 609.56 208.575 609.56C208.575 609.56 209.14 617.395 210.94 616.897C212.05 616.589 213.789 615.391 214.1 613.506C216.082 601.509 220.256 589.28 224.706 587.708C227.564 586.699 227.84 591.569 228.099 596.128C228.244 598.669 228.383 601.114 228.96 602.39C230.524 605.849 238.16 609.257 236.95 603.432C235.294 595.452 235.686 592.256 236.271 587.492C236.299 587.265 236.327 587.035 236.355 586.8C236.983 581.639 236.961 577.144 236.961 577.144Z" fill="#E375C4"/>
<path opacity="0.152414" d="M402.691 571.254C402.691 571.254 405.186 580.677 413.748 583.613C416.742 584.64 415.994 596.76 423.332 595.311" stroke="black" stroke-width="3"/>
<path d="M297.64 366.383L300.158 348.122L338.537 353.413L336.444 368.588C347.71 369.676 355.379 371.874 362.556 378.463C385.606 399.621 387.301 478.827 387.301 478.827L411.66 562.046L391.614 564.558C391.614 564.558 358.058 520.098 350.644 496.191H281.907C281.907 496.191 282.557 489.085 280.941 478.818C278.815 465.389 271.182 455.376 271.182 455.376L257.373 472.362L233.444 557.101L211.457 561.045C211.457 561.045 204.86 491.773 218.203 453.944C229.869 420.858 251.153 384.927 267.773 374.458C278.324 367.808 288.235 366.35 297.64 366.383V366.383Z" fill="#CE3D29"/>
<path opacity="0.195894" d="M357.465 497.113C360.283 461.329 379.789 453.762 365.734 413.63" stroke="black" stroke-width="3"/>
<path opacity="0.195894" d="M288.297 429.439L271.179 455.371" stroke="black" stroke-width="3"/>
<path fill-rule="evenodd" clip-rule="evenodd" d="M302.099 973.982L280.722 975.054C280.722 975.054 264.573 979.026 253.417 1000.96H304.383L302.099 973.982ZM458.354 1001.22C443.229 985.532 402.996 974.986 402.996 974.986L387.917 974.523L385.948 1001.35L458.354 1001.22Z" fill="#0D0B6D"/>
<path fill-rule="evenodd" clip-rule="evenodd" d="M271.262 989.16C283.579 988.916 292.012 982.279 296.386 977.695L301.406 978.615L318.752 709.793L262.816 735.704L284.105 972.928C280.544 975.318 260.05 989.383 271.262 989.16ZM438.848 988.2L410.009 975.686C408.354 964.7 401.353 916.901 394.895 852.684C389.101 795.071 384.057 742.339 384.057 742.339L335.946 744.585L388.558 978.08H394.272C403.426 982.748 421.174 990.134 438.848 988.2Z" fill="#E375C4"/>
<path d="M283.334 495C283.334 495 268.425 502.128 255.451 540.818C238.087 592.601 233 749.45 233 749.45H400.194L357.107 496.124L283.334 495Z" fill="#2F2F3D"/>
</svg>
